<?xml version="1.0" encoding="UTF-8" standalone="no"?>
<!DOCTYPE svg PUBLIC "-//W3C//DTD SVG 1.1//EN"
 "http://www.w3.org/Graphics/SVG/1.1/DTD/svg11.dtd">
<!-- Generated by graphviz version 2.43.0 (0)
 -->
<!-- Title: %3 Pages: 1 -->
<svg width="232pt" height="222pt"
 viewBox="0.00 0.00 232.00 222.00" xmlns="http://www.w3.org/2000/svg" xmlns:xlink="http://www.w3.org/1999/xlink">
<g id="graph0" class="graph" transform="scale(1 1) rotate(0) translate(4 218)">
<title>%3</title>
<polygon fill="white" stroke="transparent" points="-4,4 -4,-218 228,-218 228,4 -4,4"/>
<g id="clust1" class="cluster">
<title>cluster__legend</title>
<polygon fill="#ffffff" stroke="black" points="8,-74 8,-206 104,-206 104,-74 8,-74"/>
<text text-anchor="middle" x="56" y="-190.8" font-family="Helvetica,sans-Serif" font-size="14.00">Legend</text>
</g>
<!-- dir -->
<g id="node1" class="node">
<title>dir</title>
<path fill="#b4d8e4" stroke="black" d="M71,-64C71,-64 41,-64 41,-64 35,-64 29,-58 29,-52 29,-52 29,-12 29,-12 29,-6 35,0 41,0 41,0 71,0 71,0 77,0 83,-6 83,-12 83,-12 83,-52 83,-52 83,-58 77,-64 71,-64"/>
<text text-anchor="start" x="45" y="-42.8" font-family="Helvetica,sans-Serif" font-weight="bold" font-size="14.00">dir</text>
<text text-anchor="start" x="45.5" y="-14.8" font-family="Helvetica,sans-Serif" font-style="italic" font-size="14.00">list</text>
</g>
<!-- result -->
<g id="node2" class="node">
<title>result</title>
<path fill="#ffc857" stroke="black" d="M212,-64C212,-64 137,-64 137,-64 131,-64 125,-58 125,-52 125,-52 125,-12 125,-12 125,-6 131,0 137,0 137,0 212,0 212,0 218,0 224,-6 224,-12 224,-12 224,-52 224,-52 224,-58 218,-64 212,-64"/>
<text text-anchor="start" x="151.5" y="-42.8" font-family="Helvetica,sans-Serif" font-weight="bold" font-size="14.00">result</text>
<text text-anchor="start" x="136" y="-14.8" font-family="Helvetica,sans-Serif" font-style="italic" font-size="14.00">DataFrame</text>
</g>
<!-- dir&#45;&gt;result -->
<g id="edge1" class="edge">
<title>dir&#45;&gt;result</title>
<path fill="none" stroke="black" d="M83.14,-32C92.6,-32 103.69,-32 114.8,-32"/>
<polygon fill="black" stroke="black" points="114.96,-35.5 124.96,-32 114.96,-28.5 114.96,-35.5"/>
</g>
<!-- function -->
<g id="node3" class="node">
<title>function</title>
<path fill="#b4d8e4" stroke="black" d="M84,-174.5C84,-174.5 28,-174.5 28,-174.5 22,-174.5 16,-168.5 16,-162.5 16,-162.5 16,-149.5 16,-149.5 16,-143.5 22,-137.5 28,-137.5 28,-137.5 84,-137.5 84,-137.5 90,-137.5 96,-143.5 96,-149.5 96,-149.5 96,-162.5 96,-162.5 96,-168.5 90,-174.5 84,-174.5"/>
<text text-anchor="middle" x="56" y="-152.3" font-family="Helvetica,sans-Serif" font-size="14.00">function</text>
</g>
<!-- output -->
<g id="node4" class="node">
<title>output</title>
<path fill="#ffc857" stroke="black" d="M78,-119.5C78,-119.5 34,-119.5 34,-119.5 28,-119.5 22,-113.5 22,-107.5 22,-107.5 22,-94.5 22,-94.5 22,-88.5 28,-82.5 34,-82.5 34,-82.5 78,-82.5 78,-82.5 84,-82.5 90,-88.5 90,-94.5 90,-94.5 90,-107.5 90,-107.5 90,-113.5 84,-119.5 78,-119.5"/>
<text text-anchor="middle" x="56" y="-97.3" font-family="Helvetica,sans-Serif" font-size="14.00">output</text>
</g>
</g>
</svg>
