<?xml version="1.0" encoding="UTF-8" standalone="no"?>
<!DOCTYPE svg PUBLIC "-//W3C//DTD SVG 1.1//EN"
 "http://www.w3.org/Graphics/SVG/1.1/DTD/svg11.dtd">
<!-- Generated by graphviz version 2.43.0 (0)
 -->
<!-- Title: %3 Pages: 1 -->
<svg width="399pt" height="356pt"
 viewBox="0.00 0.00 399.00 356.00" xmlns="http://www.w3.org/2000/svg" xmlns:xlink="http://www.w3.org/1999/xlink">
<g id="graph0" class="graph" transform="scale(1 1) rotate(0) translate(4 352)">
<title>%3</title>
<polygon fill="white" stroke="transparent" points="-4,4 -4,-352 395,-352 395,4 -4,4"/>
<g id="clust1" class="cluster">
<title>cluster__legend</title>
<polygon fill="#ffffff" stroke="black" points="11.5,-82 11.5,-340 109.5,-340 109.5,-82 11.5,-82"/>
<text text-anchor="middle" x="60.5" y="-324.8" font-family="Helvetica,sans-Serif" font-size="14.00">Legend</text>
</g>
<!-- dir -->
<g id="node1" class="node">
<title>dir</title>
<path fill="#b4d8e4" stroke="#56e39f" d="M105,-68C105,-68 16,-68 16,-68 10,-68 4,-62 4,-56 4,-56 4,-16 4,-16 4,-10 10,-4 16,-4 16,-4 105,-4 105,-4 111,-4 117,-10 117,-16 117,-16 117,-56 117,-56 117,-62 111,-68 105,-68"/>
<path fill="none" stroke="#56e39f" d="M109,-72C109,-72 12,-72 12,-72 6,-72 0,-66 0,-60 0,-60 0,-12 0,-12 0,-6 6,0 12,0 12,0 109,0 109,0 115,0 121,-6 121,-12 121,-12 121,-60 121,-60 121,-66 115,-72 109,-72"/>
<text text-anchor="start" x="49.5" y="-46.8" font-family="Helvetica,sans-Serif" font-weight="bold" font-size="14.00">dir</text>
<text text-anchor="start" x="15" y="-18.8" font-family="Helvetica,sans-Serif" font-style="italic" font-size="14.00">Parallelizable</text>
</g>
<!-- one_frame -->
<g id="node3" class="node">
<title>one_frame</title>
<path fill="#b4d8e4" stroke="black" d="M243,-68C243,-68 162,-68 162,-68 156,-68 150,-62 150,-56 150,-56 150,-16 150,-16 150,-10 156,-4 162,-4 162,-4 243,-4 243,-4 249,-4 255,-10 255,-16 255,-16 255,-56 255,-56 255,-62 249,-68 243,-68"/>
<text text-anchor="start" x="161" y="-46.8" font-family="Helvetica,sans-Serif" font-weight="bold" font-size="14.00">one_frame</text>
<text text-anchor="start" x="164" y="-18.8" font-family="Helvetica,sans-Serif" font-style="italic" font-size="14.00">DataFrame</text>
</g>
<!-- dir&#45;&gt;one_frame -->
<g id="edge2" class="edge">
<title>dir&#45;&gt;one_frame</title>
<path fill="none" stroke="black" d="M121.28,-36C127.37,-36 133.57,-36 139.69,-36"/>
<polygon fill="black" stroke="black" points="139.87,-36 149.87,-40.5 144.87,-36 149.87,-36 149.87,-36 149.87,-36 144.87,-36 149.87,-31.5 139.87,-36 139.87,-36"/>
</g>
<!-- result -->
<g id="node2" class="node">
<title>result</title>
<path fill="#ffc857" stroke="#ea5556" d="M375,-68C375,-68 300,-68 300,-68 294,-68 288,-62 288,-56 288,-56 288,-16 288,-16 288,-10 294,-4 300,-4 300,-4 375,-4 375,-4 381,-4 387,-10 387,-16 387,-16 387,-56 387,-56 387,-62 381,-68 375,-68"/>
<path fill="none" stroke="#ea5556" d="M379,-72C379,-72 296,-72 296,-72 290,-72 284,-66 284,-60 284,-60 284,-12 284,-12 284,-6 290,0 296,0 296,0 379,0 379,0 385,0 391,-6 391,-12 391,-12 391,-60 391,-60 391,-66 385,-72 379,-72"/>
<text text-anchor="start" x="314.5" y="-46.8" font-family="Helvetica,sans-Serif" font-weight="bold" font-size="14.00">result</text>
<text text-anchor="start" x="299" y="-18.8" font-family="Helvetica,sans-Serif" font-style="italic" font-size="14.00">DataFrame</text>
</g>
<!-- one_frame&#45;&gt;result -->
<g id="edge1" class="edge">
<title>one_frame&#45;&gt;result</title>
<path fill="none" stroke="black" d="M265.49,-36C268.16,-36 270.84,-36 273.51,-36"/>
<polygon fill="black" stroke="black" points="265.3,-36 255.3,-31.5 260.3,-36 255.3,-36 255.3,-36 255.3,-36 260.3,-36 255.3,-40.5 265.3,-36 265.3,-36"/>
<polygon fill="black" stroke="black" points="273.74,-39.5 283.74,-36 273.74,-32.5 273.74,-39.5"/>
</g>
<!-- function -->
<g id="node4" class="node">
<title>function</title>
<path fill="#b4d8e4" stroke="black" d="M88.5,-308.5C88.5,-308.5 32.5,-308.5 32.5,-308.5 26.5,-308.5 20.5,-302.5 20.5,-296.5 20.5,-296.5 20.5,-283.5 20.5,-283.5 20.5,-277.5 26.5,-271.5 32.5,-271.5 32.5,-271.5 88.5,-271.5 88.5,-271.5 94.5,-271.5 100.5,-277.5 100.5,-283.5 100.5,-283.5 100.5,-296.5 100.5,-296.5 100.5,-302.5 94.5,-308.5 88.5,-308.5"/>
<text text-anchor="middle" x="60.5" y="-286.3" font-family="Helvetica,sans-Serif" font-size="14.00">function</text>
</g>
<!-- output -->
<g id="node5" class="node">
<title>output</title>
<path fill="#ffc857" stroke="black" d="M82.5,-253.5C82.5,-253.5 38.5,-253.5 38.5,-253.5 32.5,-253.5 26.5,-247.5 26.5,-241.5 26.5,-241.5 26.5,-228.5 26.5,-228.5 26.5,-222.5 32.5,-216.5 38.5,-216.5 38.5,-216.5 82.5,-216.5 82.5,-216.5 88.5,-216.5 94.5,-222.5 94.5,-228.5 94.5,-228.5 94.5,-241.5 94.5,-241.5 94.5,-247.5 88.5,-253.5 82.5,-253.5"/>
<text text-anchor="middle" x="60.5" y="-231.3" font-family="Helvetica,sans-Serif" font-size="14.00">output</text>
</g>
<!-- expand -->
<g id="node6" class="node">
<title>expand</title>
<path fill="#b4d8e4" stroke="#56e39f" d="M85.5,-194.5C85.5,-194.5 35.5,-194.5 35.5,-194.5 29.5,-194.5 23.5,-188.5 23.5,-182.5 23.5,-182.5 23.5,-169.5 23.5,-169.5 23.5,-163.5 29.5,-157.5 35.5,-157.5 35.5,-157.5 85.5,-157.5 85.5,-157.5 91.5,-157.5 97.5,-163.5 97.5,-169.5 97.5,-169.5 97.5,-182.5 97.5,-182.5 97.5,-188.5 91.5,-194.5 85.5,-194.5"/>
<path fill="none" stroke="#56e39f" d="M89.5,-198.5C89.5,-198.5 31.5,-198.5 31.5,-198.5 25.5,-198.5 19.5,-192.5 19.5,-186.5 19.5,-186.5 19.5,-165.5 19.5,-165.5 19.5,-159.5 25.5,-153.5 31.5,-153.5 31.5,-153.5 89.5,-153.5 89.5,-153.5 95.5,-153.5 101.5,-159.5 101.5,-165.5 101.5,-165.5 101.5,-186.5 101.5,-186.5 101.5,-192.5 95.5,-198.5 89.5,-198.5"/>
<text text-anchor="middle" x="60.5" y="-172.3" font-family="Helvetica,sans-Serif" font-size="14.00">expand</text>
</g>
<!-- collect -->
<g id="node7" class="node">
<title>collect</title>
<path fill="#b4d8e4" stroke="#ea5556" d="M82,-131.5C82,-131.5 39,-131.5 39,-131.5 33,-131.5 27,-125.5 27,-119.5 27,-119.5 27,-106.5 27,-106.5 27,-100.5 33,-94.5 39,-94.5 39,-94.5 82,-94.5 82,-94.5 88,-94.5 94,-100.5 94,-106.5 94,-106.5 94,-119.5 94,-119.5 94,-125.5 88,-131.5 82,-131.5"/>
<path fill="none" stroke="#ea5556" d="M86,-135.5C86,-135.5 35,-135.5 35,-135.5 29,-135.5 23,-129.5 23,-123.5 23,-123.5 23,-102.5 23,-102.5 23,-96.5 29,-90.5 35,-90.5 35,-90.5 86,-90.5 86,-90.5 92,-90.5 98,-96.5 98,-102.5 98,-102.5 98,-123.5 98,-123.5 98,-129.5 92,-135.5 86,-135.5"/>
<text text-anchor="middle" x="60.5" y="-109.3" font-family="Helvetica,sans-Serif" font-size="14.00">collect</text>
</g>
</g>
</svg>
